<svg width="949" height="572" viewBox="0 0 949 572" fill="none" xmlns="http://www.w3.org/2000/svg">
<ellipse cx="136.5" cy="148" rx="148" ry="76.5" transform="rotate(-90 136.5 148)" fill="url(#paint0_linear)"/>
<ellipse cx="725.5" cy="180" rx="148" ry="114.5" transform="rotate(-90 725.5 180)" fill="url(#paint1_linear)"/>
<path d="M127 93C99.6199 45.2957 19.5 2 19.5 2H948.5C948.5 2 850.631 28.2655 799.5 65.5C748.479 102.654 706.821 125.806 693.5 187.5C671.25 290.544 911.549 292.281 872 390C835.657 479.798 711.758 392.537 630 444.5C573.945 480.128 574.953 546.873 511.5 566.5C397.412 601.789 400.129 393.99 285.5 360.5C185.177 331.19 94.4069 462.888 19.5 390C-68.9048 303.978 188.402 199.981 127 93Z" fill="url(#paint2_linear)" stroke="black"/>
<defs>
<linearGradient id="paint0_linear" x1="136.5" y1="71.5" x2="136.5" y2="224.5" gradientUnits="userSpaceOnUse">
<stop stop-color="#EB2323"/>
<stop offset="0.338542" stop-color="#D9429C"/>
</linearGradient>
<linearGradient id="paint1_linear" x1="725.5" y1="65.5" x2="725.5" y2="294.5" gradientUnits="userSpaceOnUse">
<stop stop-color="#EB2323"/>
<stop offset="0.338542" stop-color="#D9429C"/>
</linearGradient>
<linearGradient id="paint2_linear" x1="474.655" y1="2" x2="474.655" y2="570.519" gradientUnits="userSpaceOnUse">
<stop stop-color="#4878A9"/>
<stop offset="0.208333" stop-color="#4995C9"/>
<stop offset="0.755208" stop-color="#50C2C2"/>
</linearGradient>
</defs>
</svg>
