<svg width="1478" height="877" viewBox="0 0 1478 877" fill="none" xmlns="http://www.w3.org/2000/svg">
<path d="M802.987 41.6345C611.891 -65.4535 461.985 66.0135 243.487 81.6345C24.9888 97.2555 -37.5611 275.782 20.4871 424.634C76.4061 568.027 303.262 419.052 396.987 541.134C460.809 624.266 395.293 721.551 463.487 801.134C565.258 919.902 703.691 863.516 859.987 857.634C1060.75 850.08 1230.54 878.054 1355.99 721.134C1478.06 568.44 1538.64 347.421 1388.99 221.634C1269.56 121.249 1128.61 292.242 989.487 221.634C899.224 175.824 891.289 91.118 802.987 41.6345Z" fill="url(#paint0_linear)"/>
<defs>
<linearGradient id="paint0_linear" x1="136.987" y1="101.634" x2="1345.99" y2="721.135" gradientUnits="userSpaceOnUse">
<stop offset="0.243055" stop-color="#4ABCAD"/>
<stop offset="0.982639" stop-color="#0DF091"/>
</linearGradient>
</defs>
</svg>
